<?xml version="1.0" encoding="utf-8"?>
<!-- Generator: Adobe Illustrator 15.1.0, SVG Export Plug-In . SVG Version: 6.00 Build 0)  -->
<!DOCTYPE svg PUBLIC "-//W3C//DTD SVG 1.1//EN" "http://www.w3.org/Graphics/SVG/1.1/DTD/svg11.dtd">
<svg version="1.1" id="Layer_1" xmlns="http://www.w3.org/2000/svg" xmlns:xlink="http://www.w3.org/1999/xlink" x="0px" y="0px"
	 width="133px" height="119px" viewBox="194 338 133 119" enable-background="new 194 338 133 119" xml:space="preserve">
<polygon fill="#0066CC" points="327,457 194,457 210.794,338 310.085,338 "/>
<g>
	<path fill="#F9F9F9" d="M225.505,372.456c3.86-0.813,9.956-1.422,16.153-1.422c8.838,0,14.528,1.522,18.794,4.978
		c3.556,2.643,5.689,6.705,5.689,12.09c0,6.604-4.369,12.396-11.582,15.036v0.203c6.502,1.625,14.121,7.01,14.121,17.169
		c0,5.894-2.336,10.362-5.791,13.715c-4.775,4.369-12.496,6.4-23.671,6.4c-6.096,0-10.769-0.406-13.715-0.813v-67.356H225.505z
		 M234.343,400.496h8.026c9.347,0,14.833-4.877,14.833-11.48c0-8.024-6.096-11.175-15.036-11.175c-4.064,0-6.4,0.306-7.823,0.609
		V400.496z M234.343,433.311c1.727,0.306,4.267,0.406,7.417,0.406c9.143,0,17.576-3.353,17.576-13.309
		c0-9.348-8.026-13.207-17.677-13.207h-7.315L234.343,433.311L234.343,433.311z"/>
</g>
<path fill="#FFFFFF" d="M307.392,391.469c7.142,8.173-16.923,33.063-16.923,33.063s-25.299-24.892-18.157-33.063
	c11.74-13.434,18.157,3.634,18.157,3.634S295.653,378.036,307.392,391.469z"/>
</svg>
